<svg id="Layer_1" data-name="Layer 1" xmlns="http://www.w3.org/2000/svg" viewBox="0 0 113.93 113.93"><defs><style>.cls-1{fill:#e1e8ed;}</style></defs><title>Aleph Logo - Light - G2</title><path class="cls-1" d="M127.62,147.38,97.15,131.32a8.36,8.36,0,0,1,0-14.8L162.58,82a56.9,56.9,0,0,0-25.66-14.78V89.91l-9.3,4.9V65.6c-1.75-.16-3.52-.25-5.31-.25a57,57,0,0,0,0,113.93c1.79,0,3.56-.09,5.31-.25Z" transform="translate(-65.35 -65.35)"/><path class="cls-1" d="M168.93,89.6l-65.1,34.32,23.79,12.54V117l9.3-4.9v29.26l30.3,16a56.9,56.9,0,0,0,1.71-67.75Z" transform="translate(-65.35 -65.35)"/><path class="cls-1" d="M160.4,164.67l-23.48-12.38v25.1A56.84,56.84,0,0,0,160.4,164.67Z" transform="translate(-65.35 -65.35)"/></svg>